<?xml version="1.0" standalone="no"?>
<!DOCTYPE svg PUBLIC "-//W3C//DTD SVG 20010904//EN"
 "http://www.w3.org/TR/2001/REC-SVG-20010904/DTD/svg10.dtd">
<svg version="1.0" xmlns="http://www.w3.org/2000/svg"
 width="744.000000pt" height="1052.000000pt" viewBox="0 0 744.000000 1052.000000"
 preserveAspectRatio="xMidYMid meet">

<g transform="translate(0.000000,1052.000000) scale(0.100000,-0.100000)"
fill="#000000" stroke="none">
<path d="M5987 8178 c5 -7 30 -39 56 -71 114 -142 117 -376 10 -596 -100 -206
-420 -410 -868 -554 -158 -51 -350 -97 -667 -161 -398 -80 -646 -159 -913
-291 -256 -127 -387 -243 -471 -421 -70 -145 -98 -265 -99 -414 0 -117 2 -129
29 -188 40 -86 101 -136 204 -167 31 -9 29 16 -9 111 -30 76 -31 81 -27 208 4
120 8 139 39 221 40 105 102 203 188 297 47 51 81 76 148 111 185 95 342 137
813 216 470 79 762 150 1005 245 161 64 259 115 455 241 179 115 258 160 267
152 9 -10 -58 -127 -115 -198 -116 -146 -269 -250 -662 -448 -338 -171 -405
-201 -645 -285 -104 -37 -226 -85 -270 -106 -80 -38 -166 -102 -154 -114 9 -9
548 111 779 173 827 223 1250 510 1370 933 30 104 38 267 16 341 -17 60 -75
139 -76 104 0 -32 -49 -166 -75 -207 -25 -39 -71 -78 -81 -67 -3 3 19 65 49
138 82 199 101 270 101 364 -1 119 -28 181 -118 270 -39 39 -96 85 -127 103
-69 40 -167 79 -152 60z"/>
<path d="M6450 7677 c0 -3 29 -44 66 -92 120 -157 149 -257 120 -406 -30 -155
-116 -307 -258 -455 -190 -198 -438 -344 -873 -515 -204 -81 -197 -78 -157
-78 113 -3 525 59 728 109 510 126 785 315 949 654 93 192 108 369 43 505 -69
143 -292 259 -535 278 -46 3 -83 3 -83 0z"/>
<path d="M5535 6661 c-151 -78 -333 -141 -766 -265 -372 -107 -470 -141 -644
-226 -321 -155 -472 -332 -514 -599 l-10 -65 35 -43 c36 -44 62 -58 49 -25
-17 40 -16 67 6 145 26 95 36 107 144 192 232 181 487 312 1087 555 150 62
341 145 423 185 148 72 335 187 335 205 0 15 -5 13 -145 -59z"/>
<path d="M2845 5689 c-57 -10 -303 -32 -615 -54 -518 -39 -761 -100 -816 -206
-32 -63 -12 -103 125 -244 96 -99 145 -184 236 -405 94 -230 265 -629 341
-795 179 -395 234 -563 270 -818 29 -212 80 -268 298 -331 144 -42 297 -59
536 -59 297 0 559 31 790 94 l82 22 43 87 c23 49 50 120 60 158 l17 71 41 6
c62 11 107 32 159 76 l47 39 70 -15 c39 -8 150 -24 248 -35 262 -31 426 -69
391 -91 -21 -14 -177 -10 -331 7 -159 18 -258 13 -322 -15 -36 -16 -67 -41
-52 -41 3 0 77 -11 166 -25 179 -28 251 -43 251 -56 0 -12 -68 -18 -280 -23
-194 -4 -279 -17 -288 -44 -10 -31 92 -41 286 -27 106 7 118 3 81 -31 -13 -12
-49 -22 -107 -30 -114 -15 -51 -17 143 -4 439 30 829 138 1063 293 34 23 62
48 62 56 0 8 -12 34 -26 58 -32 55 -28 68 14 43 70 -43 95 -147 52 -217 -24
-41 -164 -110 -305 -151 -292 -86 -923 -195 -1425 -247 -516 -52 -1185 -66
-1580 -32 -820 71 -1609 215 -1876 343 -97 46 -134 89 -134 155 0 59 17 96 60
133 54 45 69 25 25 -34 -14 -19 -25 -41 -25 -50 0 -24 36 -54 125 -105 246
-140 667 -241 1040 -250 110 -2 143 -1 93 4 -73 7 -118 27 -118 53 0 5 69 6
163 2 140 -6 167 -4 202 10 l40 17 -26 14 c-44 24 -147 35 -324 35 -176 0
-274 14 -226 31 26 10 201 42 330 60 85 12 85 12 62 30 -61 49 -168 59 -386
34 -137 -16 -263 -18 -305 -6 -46 14 125 59 304 81 203 25 361 49 389 59 20 8
19 10 -16 24 -108 46 -227 46 -472 2 -77 -14 -182 -30 -234 -35 -95 -10 -199
-4 -184 11 4 4 53 21 108 38 163 50 394 83 670 96 66 3 148 8 183 11 l63 6 -6
31 c-12 53 -42 92 -92 117 -41 21 -66 25 -176 28 -405 13 -1170 -133 -1362
-260 -54 -36 -122 -127 -131 -175 -10 -52 14 -118 61 -171 86 -95 191 -140
588 -256 277 -81 465 -123 691 -156 82 -12 218 -39 303 -60 179 -46 274 -56
628 -70 143 -5 311 -17 373 -25 92 -12 148 -13 305 -5 105 5 221 14 257 19 36
6 193 15 350 21 343 13 410 20 584 65 74 19 208 46 298 60 283 44 427 77 765
175 328 97 438 146 521 234 65 69 83 134 56 204 -23 62 -96 138 -164 172 -199
99 -831 231 -1050 218 -114 -7 -190 -58 -190 -130 0 -49 30 -61 163 -69 140
-8 287 -36 425 -81 79 -25 93 -32 77 -40 -27 -16 -208 -3 -365 26 -280 52
-403 54 -507 11 -20 -8 -37 -15 -40 -15 -11 0 107 156 143 189 22 21 80 59
130 86 323 173 603 389 733 563 116 157 158 308 128 456 -21 101 -56 172 -117
239 -58 64 -124 101 -216 123 -138 32 -211 -1 -267 -118 -20 -40 -48 -106 -62
-146 -15 -41 -38 -86 -52 -100 l-24 -27 6 38 c3 21 20 82 36 135 32 102 57
257 46 285 -3 9 -26 22 -51 28 -96 24 -82 42 79 104 127 49 165 83 165 148 0
64 -32 98 -144 152 -217 105 -603 175 -974 175 -140 0 -145 -1 -181 -26 -43
-32 -68 -62 -76 -96 -6 -25 -5 -25 82 -36 196 -25 612 -53 763 -51 62 1 70 2
45 10 -59 18 -197 39 -432 64 -130 15 -240 28 -242 31 -17 17 389 -8 539 -32
145 -25 304 -80 325 -114 8 -13 -74 -64 -154 -94 -242 -92 -596 -124 -1201
-106 -190 5 -455 10 -590 10 -400 1 -689 21 -880 62 -184 39 -260 81 -260 144
0 51 24 54 69 10 45 -44 65 -45 177 -11 121 37 249 53 504 65 124 5 280 13
347 16 l122 6 -5 46 c-11 90 -36 136 -71 131 -4 -1 -30 -5 -58 -10z m-1215
-284 c73 -62 214 -136 305 -160 33 -8 100 -18 148 -22 176 -12 79 -40 -107
-30 -258 13 -381 68 -423 189 -13 38 -10 78 6 78 4 0 36 -25 71 -55z m171
-225 c349 -91 882 -140 1514 -140 253 0 716 13 885 25 185 13 -108 -43 -355
-67 -168 -17 -901 -17 -1125 0 -309 23 -715 63 -799 78 -97 18 -141 34 -188
70 -28 21 -61 64 -50 64 2 0 55 -13 118 -30z m204 -200 c22 -5 101 -14 175
-20 74 -6 190 -15 258 -21 125 -10 268 -40 287 -60 14 -15 -405 -4 -610 16
-82 8 -156 15 -162 15 -8 0 -13 15 -13 40 0 44 2 45 65 30z m190 -175 c112
-21 164 -25 260 -23 102 3 125 0 148 -15 15 -9 27 -22 27 -27 0 -13 -421 -13
-530 0 -130 16 -150 25 -150 64 0 18 2 35 5 38 6 6 45 0 240 -37z m3163 -69
c63 -33 95 -97 95 -191 -2 -158 -75 -261 -340 -478 -70 -58 -148 -126 -173
-151 -24 -25 -51 -46 -60 -46 -28 0 -167 -66 -236 -113 -84 -55 -170 -139
-260 -249 -40 -50 -64 -73 -59 -58 25 88 97 245 240 525 89 176 177 356 195
400 31 79 33 81 89 107 42 20 78 51 150 127 121 132 163 154 274 146 32 -3 70
-11 85 -19z m-3068 -77 c205 -10 322 -25 383 -48 15 -6 27 -12 27 -14 0 -2
-136 -3 -302 -3 -270 1 -308 3 -350 19 -40 16 -48 23 -48 44 0 24 2 25 38 19
20 -3 134 -11 252 -17z m70 -159 c223 -13 373 -29 384 -40 21 -21 -117 -27
-480 -22 l-201 2 -11 25 c-7 14 -12 36 -12 49 0 22 0 22 73 10 39 -7 151 -18
247 -24z m160 -161 c115 -10 227 -32 244 -50 11 -10 -37 -12 -383 -9 -237 2
-245 2 -262 23 -10 12 -18 30 -19 40 0 17 10 18 153 12 83 -4 204 -11 267 -16z
m65 -165 c83 -7 152 -14 155 -14 3 -1 -8 -8 -25 -17 -38 -21 -175 -28 -368
-18 l-142 7 -23 36 -23 35 138 -7 c76 -4 206 -14 288 -22z m-70 -134 c144 -12
255 -29 255 -40 0 -9 -40 -25 -85 -35 -16 -4 -116 -3 -222 0 -184 7 -191 8
-196 29 -2 11 -8 29 -12 39 -6 15 0 17 66 17 41 0 128 -5 194 -10z m70 -169
c157 -6 210 -12 245 -26 l44 -19 -29 -8 c-43 -12 -369 -22 -435 -14 -53 7 -56
9 -72 48 l-17 40 32 -6 c17 -4 122 -10 232 -15z m260 -180 c175 -6 179 -7 150
-23 -46 -25 -132 -36 -331 -44 l-180 -6 -27 32 c-49 57 -42 61 91 54 64 -3
198 -9 297 -13z m209 -160 c17 -7 10 -12 -39 -31 -55 -22 -79 -24 -275 -28
l-215 -4 -13 34 c-6 19 -12 36 -12 39 0 7 533 -3 554 -10z m-258 -142 c87 -6
184 -14 214 -18 50 -6 53 -8 33 -19 -73 -40 -304 -56 -433 -29 -52 11 -55 14
-58 45 -3 32 -3 32 41 32 24 0 115 -5 203 -11z m59 -149 c83 -6 179 -15 214
-21 56 -10 62 -13 47 -24 -33 -25 -145 -38 -270 -32 -164 8 -276 40 -276 79 0
18 6 19 68 13 37 -3 135 -10 217 -15z m-219 -145 c182 -38 566 -71 894 -78
103 -2 105 -2 80 -19 -42 -29 -171 -41 -415 -41 -230 0 -363 10 -527 39 -86
16 -87 16 -107 55 -35 67 -34 67 75 44z"/>
<path d="M5110 4502 c-182 -120 -300 -265 -349 -426 -27 -88 -27 -99 2 -91
109 32 330 170 351 220 14 32 40 57 93 86 57 32 132 217 105 258 -5 7 -29 15
-53 18 -41 4 -51 0 -149 -65z"/>
<path d="M1741 2526 c12 -12 184 -67 284 -91 133 -31 315 -60 510 -82 136 -15
244 -18 725 -17 585 2 784 11 945 43 90 19 210 59 202 67 -3 3 -67 -2 -143
-10 -431 -48 -1001 -48 -1619 -1 -291 23 -701 66 -870 91 -22 4 -37 3 -34 0z"/>
</g>
</svg>
